<svg xmlns="http://www.w3.org/2000/svg" viewBox="0 0 64 64">
  <title>Road to Hawaii – Triathlon Orbit</title>
  <rect width="64" height="64" rx="14" fill="#171c1b"/>
  <path fill="#e75b32" d="M10 29A23 23 0 0 1 47 13l-5 7A14 14 0 0 0 19 30z"/>
  <path fill="#0f6675" d="M14 35c7-7 15-8 23-3 5 3 9 4 15 1-3 12-12 20-23 20-9 0-16-5-19-12 8 4 14 3 20-1-5-2-10-1-16 3z"/>
  <circle cx="42" cy="27" r="4" fill="#f8f4ea"/>
  <path d="m40 32-7 7m5-5 7 4m-7-4-3-7m3 7 4 8" fill="none" stroke="#f8f4ea" stroke-width="5" stroke-linecap="round" stroke-linejoin="round"/>
</svg>
